<svg preserveAspectRatio="none" width="100%" height="100%" overflow="visible" style="display: block;" viewBox="0 0 40 40" fill="none" xmlns="http://www.w3.org/2000/svg">
<path id="Subtract" d="M20.001 0C31.0472 0.000169729 40.0027 8.9548 40.0029 20.001C40.0027 31.0471 31.0472 40.0028 20.001 40.0029H5.45312C2.53603 40.0029 0.15327 37.7118 0.00683594 34.8311L0 34.5498V5.45312L0.00683594 5.17188C0.153006 2.29093 2.53585 0 5.45312 0H20.001ZM9.83301 7.83301C8.72868 7.83314 7.83322 8.7287 7.83301 9.83301V13.334C7.83302 14.4385 8.72856 15.3339 9.83301 15.334H22.168C23.2725 15.3341 24.168 16.2295 24.168 17.334V22.835C24.1678 23.9393 23.2724 24.8349 22.168 24.835H9.83301C8.72855 24.8351 7.83301 25.7305 7.83301 26.835V30.1689C7.83322 31.2733 8.72868 32.1688 9.83301 32.1689H23.001C24.1054 32.1689 25.0008 31.2733 25.001 30.1689V26.835C25.001 25.7305 25.8965 24.8351 27.001 24.835H30.502C31.6063 24.8348 32.5018 23.9393 32.502 22.835V17.001C32.502 15.8965 31.6064 15.0011 30.502 15.001H27.001C25.8966 15.0009 25.0012 14.1053 25.001 13.001V9.83301C25.0008 8.72862 24.1054 7.83301 23.001 7.83301H9.83301Z" fill="url(#paint0_linear_846_7112)"/>
<defs>
<linearGradient id="paint0_linear_846_7112" x1="40.0029" y1="20.0015" x2="0" y2="20.0015" gradientUnits="userSpaceOnUse">
<stop stop-color="#0066CC"/>
<stop offset="1" stop-color="#41A0FF"/>
</linearGradient>
</defs>
</svg>
